<?xml version="1.0" encoding="UTF-8"?>
<svg version="1.1" xmlns="http://www.w3.org/2000/svg" width="1024" height="1024">
<path d="M0 0 C337.92 0 675.84 0 1024 0 C1024 337.92 1024 675.84 1024 1024 C686.08 1024 348.16 1024 0 1024 C0 686.08 0 348.16 0 0 Z " fill="#E3E3E3" transform="translate(0,0)"/>
<path d="M0 0 C1.16711803 -0.00367669 2.33423605 -0.00735338 3.53672129 -0.01114148 C6.74970427 -0.02019856 9.96265722 -0.0248625 13.17565072 -0.02753079 C16.6516797 -0.03146267 20.1276943 -0.04103858 23.60371399 -0.04974365 C31.98383628 -0.06942461 40.36395963 -0.07956244 48.74409923 -0.08847144 C52.70101854 -0.09286707 56.65793654 -0.09823044 60.61485481 -0.10346031 C73.78557399 -0.12046229 86.95629238 -0.13495432 100.12702084 -0.14220905 C103.53801411 -0.14411859 106.94900737 -0.14603898 110.36000061 -0.147995 C111.6315019 -0.14872061 111.6315019 -0.14872061 112.92869008 -0.14946087 C126.64692937 -0.15775355 140.36508125 -0.18308221 154.0832824 -0.21557567 C168.20093738 -0.24873996 182.31854806 -0.26666614 196.43624216 -0.26985329 C204.34929338 -0.27200946 212.26221703 -0.28062656 220.17523003 -0.30631447 C226.91653384 -0.32814978 233.65767906 -0.33600937 240.39901423 -0.32634769 C243.83033812 -0.32184009 247.26133568 -0.32347883 250.6926136 -0.34310913 C281.52281758 -0.49053026 307.23425116 4.49763831 330.36952209 26.33467102 C347.67893307 44.63536984 356.19096192 67.47180098 356.17012024 92.47956848 C356.17457692 94.16347868 356.17457692 94.16347868 356.17912364 95.88140726 C356.18777727 99.63341426 356.18931607 103.38538922 356.19081116 107.1374054 C356.19544174 109.83180388 356.20044656 112.52619951 356.20585632 115.22059631 C356.21940256 122.53501155 356.22545874 129.84942128 356.22986698 137.16384697 C356.23263604 141.73770131 356.23687462 146.31155357 356.24137115 150.88540649 C356.25355964 163.56794349 356.26385935 176.25047882 356.26724625 188.93302155 C356.26746581 189.74377629 356.26768538 190.55453103 356.2679116 191.3898541 C356.26812988 192.2024676 356.26834815 193.01508109 356.26857305 193.85231924 C356.2690165 195.49878025 356.26946306 197.14524126 356.26991272 198.79170227 C356.27013415 199.60839097 356.27035558 200.42507967 356.27058372 201.26651651 C356.27452775 214.48573752 356.2919716 227.70490327 356.31527224 240.92410296 C356.33904318 254.52074488 356.35145073 268.11735914 356.35261416 281.71402216 C356.35352777 289.33802459 356.35920038 296.96195502 356.37743378 304.5859375 C356.39291259 311.08069041 356.39790977 317.57534907 356.38969567 324.07011694 C356.38581625 327.37750349 356.38825094 330.68454806 356.40075302 333.99193573 C356.51615037 366.43928731 350.06753161 392.48132214 326.93592834 416.30342102 C308.63552958 433.36311478 285.16320801 439.29844936 260.93200684 439.29434204 C259.75122702 439.29801873 258.57044721 439.30169542 257.35388619 439.30548352 C254.10283734 439.31454168 250.85181816 439.31920478 247.60075891 439.32187283 C244.08386809 439.32580418 240.5669915 439.33538003 237.05010986 439.34408569 C228.57211077 439.36376651 220.09411063 439.37390375 211.61609444 439.38281348 C207.61408846 439.3872085 203.61208377 439.39257198 199.61007881 439.39780235 C186.29180775 439.41480312 172.97353746 439.42929608 159.65525723 439.43655109 C156.20608964 439.43846066 152.75692207 439.44038105 149.30775452 439.44233704 C148.02200853 439.44306265 148.02200853 439.44306265 146.71028788 439.44380292 C132.83226809 439.4520991 118.9543346 439.47743424 105.07635247 439.50991771 C90.79824541 439.54306298 76.52018212 439.56100642 62.2420364 439.56419533 C54.2373878 439.56635308 46.23286521 439.57499386 38.22825432 439.60065651 C31.4104044 439.62246553 24.59271118 439.63036402 17.77483033 439.62068973 C14.30325041 439.61617487 10.83199309 439.61786464 7.36045837 439.63745117 C-19.34762313 439.76346307 -41.45040508 435.68948916 -62.97032166 419.14717102 C-63.69477478 418.60705383 -64.41922791 418.06693665 -65.16563416 417.51045227 C-82.93030061 403.23398956 -93.16315201 380.30547377 -95.97032166 358.14717102 C-96.22352571 354.17009898 -96.24962376 350.21084452 -96.23774719 346.22659302 C-96.24227831 345.08902343 -96.24680942 343.95145384 -96.25147784 342.77941245 C-96.26405005 339.00067051 -96.26250611 335.22207402 -96.260849 331.4433136 C-96.26575698 328.72038741 -96.27358963 325.99747117 -96.28120422 323.27455139 C-96.29774539 316.665064 -96.30331063 310.0556123 -96.30442898 303.44610593 C-96.30538271 298.06800519 -96.30950915 292.68991612 -96.31583023 287.31181908 C-96.33342366 272.02965678 -96.34267205 256.74752245 -96.34116928 241.46534995 C-96.34108937 240.64322932 -96.34100946 239.82110869 -96.34092712 238.97407532 C-96.34080448 237.73937098 -96.34080448 237.73937098 -96.34067936 236.47972312 C-96.33986695 223.14824468 -96.3589984 209.81687935 -96.38720386 196.48543362 C-96.41600463 182.76322302 -96.42974022 169.04106746 -96.4280163 155.3188259 C-96.42735489 147.62832237 -96.43273734 139.93793744 -96.45437241 132.24746132 C-96.4726792 125.69864308 -96.47685429 119.14999721 -96.46335356 112.60116432 C-96.45687127 109.2672159 -96.4587518 105.93386392 -96.47406006 102.59990501 C-96.60189617 72.8130808 -90.64592442 48.33093593 -69.65782166 26.33467102 C-50.08523689 7.64051923 -26.70713634 -0.00458192 0 0 Z " fill="#012E61" transform="translate(381.97032165527344,196.8528289794922)"/>
<path d="M0 0 C21.21527279 9.30494421 37.14453185 50.87219407 45.23242188 71.07910156 C53.53775275 92.70618315 58.99352043 114.20221499 63 137 C63.20625 138.13308594 63.4125 139.26617187 63.625 140.43359375 C65.300322 156.36660401 65.23910201 173.46610942 61 189 C60.77957031 189.80953125 60.55914063 190.6190625 60.33203125 191.453125 C49.59726646 229.39398681 23.92621254 256.25916054 -9.93359375 275.20385742 C-21.47122834 281.49152804 -33.4541851 286.81007179 -45.47851562 292.08789062 C-63.6382662 300.08919606 -80.37338349 310.31601107 -89 329 C-94.13545627 342.55282121 -96.01463287 356.60845376 -97 371 C-97.66 371 -98.32 371 -99 371 C-100.45236169 342.52830306 -101.76372349 313.33531506 -98 285 C-97.87109375 284.02853027 -97.7421875 283.05706055 -97.609375 282.05615234 C-92.37653059 244.2936698 -92.37653059 244.2936698 -85 235 C-81.77077862 232.90677623 -78.34088937 231.27642478 -74.875 229.61328125 C-73.35084473 228.86041084 -73.35084473 228.86041084 -71.79589844 228.09233093 C-68.53695044 226.48572549 -65.26900311 224.89853079 -62 223.3125 C-57.747743 221.22984732 -53.49905805 219.13995074 -49.25 217.05078125 C-48.21254639 216.54257843 -47.17509277 216.03437561 -46.10620117 215.51077271 C-37.24723592 211.15893762 -28.50060896 206.61188213 -19.80151367 201.94963074 C-19.20701416 201.63625259 -18.61251465 201.32287445 -18 201 C-17.30430908 200.62591507 -16.60861816 200.25183014 -15.8918457 199.8664093 C-14 199 -14 199 -12.0625 199.1875 C-10 200 -10 200 -7.80078125 201.5234375 C-2.58868634 204.27123649 3.26552461 203.62617835 9 203 C11.77703293 201.95522051 13.57701092 200.76217387 16 199 C16.66 199 17.32 199 18 199 C18.433125 198.13375 18.433125 198.13375 18.875 197.25 C20 195 20 195 21.046875 193.31640625 C23.35712946 187.70173045 22.91194633 179.49194641 21.3828125 173.63671875 C19.01385022 168.90927632 14.64182769 166.19398887 10 164 C4.38694416 162.29215162 -0.83877261 162.18824518 -6.1875 164.625 C-11.24536572 167.42719673 -14.8629224 171.58685288 -17 177 C-16.89959726 178.73969013 -16.77534513 180.47809769 -16.6328125 182.21484375 C-16.86425781 185.15576172 -16.86425781 185.15576172 -18 188 C-22.83192138 191.79993024 -28.27789678 194.09351674 -33.875 196.5625 C-35.43984801 197.29057981 -37.00259934 198.02318275 -38.56323242 198.76025391 C-41.63483353 200.20714333 -44.71401531 201.63517785 -47.80126953 203.04833984 C-53.06891467 205.4751574 -58.2032761 208.13217009 -63.3125 210.875 C-64.04388184 211.26115479 -64.77526367 211.64730957 -65.52880859 212.04516602 C-68.35577111 213.54398181 -71.13013163 215.08010839 -73.85546875 216.7578125 C-76 218 -76 218 -78 218 C-70.13937452 191.75424491 -52.84400847 167.9605743 -37 146 C-35.8371569 144.38026769 -34.67439607 142.76047631 -33.51171875 141.140625 C-31.32124099 138.09141238 -29.11329627 135.05600929 -26.89453125 132.02734375 C-25.09943733 129.56438893 -23.38515432 127.08300772 -21.76171875 124.50390625 C-17.1878916 117.4552628 -17.1878916 117.4552628 -13.57421875 116.0703125 C-11.87875649 115.77701554 -10.17251279 115.53970516 -8.4609375 115.36328125 C-3.64517682 114.65238324 0.37841983 112.09630364 3.34765625 108.2578125 C6.95684708 102.22955829 7.94466897 96.66730516 6.5390625 89.72265625 C4.96271796 84.14981467 2.97663027 81.25395056 -2 78 C-7.3526131 75.0712117 -12.00650049 74.08189078 -18 75 C-23.91739284 76.88039234 -27.49862169 79.95389596 -31 85 C-33.66709544 90.55878838 -33.54138919 95.94628455 -33 102 C-31.60754661 105.77951635 -30.05799407 108.37886222 -27 111 C-28.33659456 113.82771326 -29.84356493 116.3118935 -31.6875 118.8359375 C-32.21593506 119.56272705 -32.74437012 120.2895166 -33.28881836 121.03833008 C-33.8535083 121.80943115 -34.41819824 122.58053223 -35 123.375 C-36.1889824 125.01158776 -37.37778292 126.64830768 -38.56640625 128.28515625 C-40.16480522 130.48059521 -41.76371122 132.67566381 -43.36279297 134.87060547 C-66.494375 166.69148851 -84.37799643 199.66730576 -98.546875 236.32421875 C-99.59605273 238.97818714 -100.6505784 241.49298634 -102 244 C-112.10293484 224.89760621 -118.67444563 205.71203032 -112.0625 184.0625 C-108.89204125 175.95920714 -104.57863011 168.38239799 -100 161 C-99.26523437 159.79730469 -99.26523437 159.79730469 -98.515625 158.5703125 C-97 157 -97 157 -94.8359375 156.56640625 C-94.02382813 156.56511719 -93.21171875 156.56382812 -92.375 156.5625 C-85.4817596 156.12915302 -80.41927221 153.41927221 -75.5625 148.5625 C-71.93444834 142.61249528 -71.1835866 136.84939031 -72 130 C-73.6767019 123.63078338 -77.33368487 120.5522905 -82.78125 117.12890625 C-87.87480324 114.53729201 -93.6503471 113.92046177 -99.12109375 115.68359375 C-105.21874219 118.46153945 -109.47240113 122.69770502 -112 129 C-112.67263261 135.76126803 -112.96021366 142.21199542 -109 148 C-108.34 148.99 -107.68 149.98 -107 151 C-107.76183594 152.19882812 -107.76183594 152.19882812 -108.5390625 153.421875 C-114.82194397 163.44624769 -120.79128276 173.52511714 -124 185 C-124.20496094 185.63421875 -124.40992188 186.2684375 -124.62109375 186.921875 C-129.59454071 204.62048624 -125.02175906 224.93738245 -117 241 C-116.1476467 242.5052997 -115.2876085 244.00626182 -114.421875 245.50390625 C-108.87895854 255.19576455 -105.42691838 261.64985109 -108 273 C-108.34890911 275.31020124 -108.68180236 277.62286879 -109 279.9375 C-109.25910156 281.65646484 -109.25910156 281.65646484 -109.5234375 283.41015625 C-110.29922472 289.25399604 -110.66016158 295.11542939 -111 301 C-114.62401213 299.50153206 -116.6317703 297.44211507 -119.1875 294.5 C-119.97769531 293.59765625 -120.76789063 292.6953125 -121.58203125 291.765625 C-122.37996094 290.85296875 -123.17789063 289.9403125 -124 289 C-125.45737483 287.41578437 -126.9156971 285.83243977 -128.375 284.25 C-133.39845332 278.65966392 -138.0306958 272.79927374 -142.59277344 266.83105469 C-143.96599881 265.04424166 -145.36085768 263.27609718 -146.7578125 261.5078125 C-166.13771338 236.54206181 -176.07310076 208.4373616 -172.3125 176.8125 C-170.02659216 163.11281783 -164.49669381 151.11388238 -158 139 C-157.68160156 138.39269043 -157.36320312 137.78538086 -157.03515625 137.15966797 C-149.20701961 122.28702041 -138.5476958 110.08669716 -127 98 C-126.32582031 97.27296875 -125.65164063 96.5459375 -124.95703125 95.796875 C-109.88457978 79.98526279 -90.09080666 67.62300425 -72.08935547 55.41699219 C-39.70582435 33.6894115 -39.70582435 33.6894115 -9.8671875 8.68359375 C-6.65912876 5.68095567 -3.36833449 2.82000097 0 0 Z " fill="#56B832" transform="translate(560,212)"/>
<path d="M0 0 C6.93 0 13.86 0 21 0 C21 32.34 21 64.68 21 98 C14.4 98 7.8 98 1 98 C0.67 77.54 0.34 57.08 0 36 C-8.56133733 49.72534202 -8.56133733 49.72534202 -16.796875 63.64453125 C-17.30089844 64.52431641 -17.80492187 65.40410156 -18.32421875 66.31054688 C-19.31394783 68.04731805 -20.27844987 69.79861269 -21.22265625 71.56054688 C-23.13563586 74.83040736 -24.63166068 77.33130712 -28.09375 79.02319336 C-30.9884887 79.4926526 -32.3523648 79.29450489 -35 78 C-38.53733412 74.05098651 -40.9716179 69.5595702 -43.5 64.9375 C-44.19870635 63.71371016 -44.9005089 62.49168261 -45.60546875 61.27148438 C-47.75590124 57.52512094 -49.8777271 53.76238709 -52 50 C-56.455 42.575 -56.455 42.575 -61 35 C-61.33 55.79 -61.66 76.58 -62 98 C-68.27 98 -74.54 98 -81 98 C-81 65.99 -81 33.98 -81 1 C-74.07 1 -67.14 1 -60 1 C-56.39064974 5.21534273 -54.74947057 7.27587892 -52.82171631 12.08166504 C-51.41918808 15.35593245 -49.52072865 18.32772436 -47.67578125 21.3671875 C-46.94699653 22.61290683 -46.22108834 23.86031341 -45.49804688 25.109375 C-45.13831787 25.72876953 -44.77858887 26.34816406 -44.40795898 26.98632812 C-43.67163864 28.25581201 -42.93597179 29.52567514 -42.20092773 30.79589844 C-41.11225504 32.67561417 -40.01928768 34.55278074 -38.92578125 36.4296875 C-38.29067627 37.52522949 -37.65557129 38.62077148 -37.0012207 39.74951172 C-34.81586952 43.29907444 -32.45667341 46.6338121 -30 50 C-29.48203857 49.1248877 -28.96407715 48.24977539 -28.43041992 47.34814453 C-28.08507706 46.76501495 -27.73973419 46.18188538 -27.38392639 45.58108521 C-26.60342343 44.26275971 -25.82343922 42.94412698 -25.04393005 41.62521362 C-22.88597265 37.97744876 -20.71595656 34.33775321 -18.52294922 30.7109375 C-14.33795684 23.77021397 -10.23322857 16.93640548 -6.99194336 9.48779297 C-5.10010154 6.04470169 -2.4608437 3.06238327 0 0 Z " fill="#1E2C37" transform="translate(494,698)"/>
<path d="M0 0 C12.00375 -0.1546875 12.00375 -0.1546875 24.25 -0.3125 C28.00165527 -0.38078003 28.00165527 -0.38078003 31.82910156 -0.45043945 C45.42613614 -0.59499909 57.16732177 -0.50527276 67.6015625 9.39453125 C74.75913893 17.61174888 74.77132226 27.59134151 74.21777344 37.96923828 C73.39761982 45.61726268 68.79621192 50.81062801 63.16015625 55.625 C60.55460043 57.28350931 57.95161553 58.12669128 55 59 C56.78893746 62.00163509 58.58127006 65.00122644 60.375 68 C60.91286133 68.89960449 61.45072266 69.79920898 62.00488281 70.72607422 C65.92515604 77.26178576 69.92761931 83.73956858 74.05224609 90.1484375 C77 94.7849707 77 94.7849707 77 97 C69.41 97 61.82 97 54 97 C52.46279297 94.32390625 52.46279297 94.32390625 50.89453125 91.59375 C49.88511651 89.8394568 48.87569062 88.08517 47.8659668 86.33105469 C47.17207289 85.12498185 46.47870025 83.91860895 45.78588867 82.71191406 C45.28375854 81.83744629 45.28375854 81.83744629 44.77148438 80.9453125 C44.44042694 80.36797363 44.10936951 79.79063477 43.76828003 79.19580078 C42.78026982 77.4873193 41.77230077 75.79043077 40.76416016 74.09375 C39 71 39 71 37.88818359 68.40625 C36.8544763 65.86205864 36.8544763 65.86205864 34 63 C27.07 62.505 27.07 62.505 20 62 C20 73.55 20 85.1 20 97 C13.4 97 6.8 97 0 97 C0 64.99 0 32.98 0 0 Z " fill="#1C2A35" transform="translate(317,699)"/>
<path d="M0 0 C7.858125 -0.0825 15.71625 -0.165 23.8125 -0.25 C26.27050049 -0.28641602 28.72850098 -0.32283203 31.26098633 -0.36035156 C33.24299246 -0.37205088 35.22500832 -0.38223974 37.20703125 -0.390625 C38.20875366 -0.41108887 39.21047607 -0.43155273 40.24255371 -0.45263672 C50.68868331 -0.45771938 59.52948638 2.3754561 67.05078125 9.76171875 C73.80858378 17.52168037 74.90284068 25.00550273 74.41796875 34.99609375 C73.7447852 43.11012409 69.98186955 49.54136726 64 55 C58.33136095 59 58.33136095 59 55 59 C60.63154854 69.28812614 66.59196255 79.32323553 72.83276367 89.25463867 C73.6445105 90.54978394 73.6445105 90.54978394 74.47265625 91.87109375 C74.96000244 92.64380615 75.44734863 93.41651855 75.94946289 94.21264648 C77 96 77 96 77 97 C56.77039668 99.10310222 56.77039668 99.10310222 51.11328125 94.80859375 C49.4660789 92.01085093 48.16987772 89.23298122 46.98291016 86.21435547 C44.96281894 81.66337998 42.13125814 77.52887623 39.5 73.3125 C38.44095818 71.58367048 37.38835937 69.85086933 36.34375 68.11328125 C35.89193359 67.36860596 35.44011719 66.62393066 34.97460938 65.85668945 C34 64 34 64 34 62 C29.38 62 24.76 62 20 62 C20 73.55 20 85.1 20 97 C13.4 97 6.8 97 0 97 C0 64.99 0 32.98 0 0 Z " fill="#1D2A35" transform="translate(812,699)"/>
<path d="M0 0 C7.59 0 15.18 0 23 0 C26.85708117 8.22318234 30.24929159 16.57375991 33.50445557 25.04693604 C35.02198106 28.99624747 36.55066207 32.94124255 38.078125 36.88671875 C38.39544586 37.70708618 38.71276672 38.52745361 39.03970337 39.37268066 C42.69246814 48.80680553 46.4063104 58.21670839 50.125 67.625 C50.44233093 68.42837799 50.75966187 69.23175598 51.08660889 70.05947876 C51.99745394 72.36532748 52.90883133 74.67096517 53.8203125 76.9765625 C54.10155975 77.6887645 54.38280701 78.40096649 54.6725769 79.13475037 C56.53577821 83.84692091 58.43116117 88.54501371 60.36669922 93.22802734 C61 95 61 95 61 97 C53.74 97 46.48 97 39 97 C36.20805448 90.35969714 33.53084415 83.74891774 31 77 C11.695 76.505 11.695 76.505 -8 76 C-8.99 79.3 -9.98 82.6 -11 86 C-12.27452737 89.69144048 -13.63884071 93.33895086 -15 97 C-22.26 97 -29.52 97 -37 97 C-34.75008179 86.87536803 -34.75008179 86.87536803 -33.2668457 83.17504883 C-32.93450424 82.33608566 -32.60216278 81.4971225 -32.25975037 80.63273621 C-31.90204056 79.74975357 -31.54433075 78.86677094 -31.17578125 77.95703125 C-30.60773521 76.5307415 -30.60773521 76.5307415 -30.0282135 75.07563782 C-28.79590956 71.98537896 -27.55425645 68.89897115 -26.3125 65.8125 C-25.45779039 63.67394728 -24.60379323 61.53510968 -23.75048828 59.39599609 C-22.01579222 55.04859334 -20.27811343 50.70240048 -18.53857422 46.35693359 C-16.15540234 40.39713755 -13.79327642 34.42924074 -11.44140625 28.45703125 C-11.09187393 27.56947647 -10.74234161 26.68192169 -10.38221741 25.76747131 C-9.05499218 22.39587444 -7.72860065 19.02394992 -6.4022522 15.65200806 C-5.50597652 13.3744485 -4.60857272 11.09733649 -3.7109375 8.8203125 C-3.44829605 8.15179764 -3.1856546 7.48328278 -2.91505432 6.79450989 C-2.00642153 4.49080068 -1.10811982 2.21623963 0 0 Z " fill="#1E2C37" transform="translate(242,699)"/>
<path d="M0 0 C6.6 0 13.2 0 20 0 C20.0093457 1.95220459 20.01869141 3.90440918 20.02832031 5.91577148 C20.06396138 12.39393909 20.1178311 18.87175869 20.18390274 25.34968472 C20.22327176 29.27407343 20.25551156 33.19824133 20.27099609 37.12280273 C20.28623312 40.91619238 20.32080119 44.70897451 20.36830902 48.50209236 C20.38305077 49.94317379 20.39103685 51.384342 20.39188385 52.82549858 C20.40124979 60.77681467 20.45843887 68.1486361 25 75 C30.9023477 80.62128353 36.31463307 80.41651987 44.0546875 80.28125 C49.06322115 79.92420602 51.22883391 79.24495687 55 76 C61.24955506 68.45743355 60.33144512 56.98838923 60.4140625 47.77734375 C60.43280968 46.4225603 60.45238563 45.06778809 60.4727478 43.71302795 C60.52370076 40.1769987 60.56352141 36.64093173 60.60089111 33.10473633 C60.64116414 29.48444578 60.69214917 25.86430704 60.7421875 22.24414062 C60.83850948 15.16286636 60.92205942 8.08150395 61 1 C67.6 1 74.2 1 81 1 C81.04536297 9.43262645 81.08198023 17.86515644 81.10362434 26.29787254 C81.11401759 30.21441594 81.12809428 34.13087081 81.15087891 38.04736328 C81.17276768 41.83398929 81.18460207 45.62053067 81.18975449 49.40721512 C81.19342169 50.84474645 81.20058197 52.28227367 81.21146011 53.71976852 C81.31178383 67.53912625 80.48279711 79.30156474 70.6875 89.8125 C61.9942152 97.95891873 51.71640491 99.3607383 40.25 99.375 C39.2290625 99.39949219 38.208125 99.42398438 37.15625 99.44921875 C26.24171126 99.49077156 17.12607288 96.37330128 9 89 C2.32805049 82.14271856 -0.13004387 73.34474533 -0.11352539 64.02832031 C-0.11367142 63.3352327 -0.11381744 62.64214508 -0.1139679 61.92805481 C-0.11327307 59.64471267 -0.10550085 57.36145283 -0.09765625 55.078125 C-0.09579054 53.49200485 -0.09436736 51.90588412 -0.09336853 50.31976318 C-0.08955538 46.15063885 -0.07973537 41.9815495 -0.06866455 37.81243896 C-0.05842457 33.55595371 -0.05386537 29.29946278 -0.04882812 25.04296875 C-0.03811201 16.69529468 -0.02052495 8.34765573 0 0 Z " fill="#1D2B36" transform="translate(537,698)"/>
<path d="M0 0 C21.12 0 42.24 0 64 0 C64 5.61 64 11.22 64 17 C49.48 17 34.96 17 20 17 C20 24.26 20 31.52 20 39 C32.87 39 45.74 39 59 39 C59 44.94 59 50.88 59 57 C46.13 57 33.26 57 20 57 C20 64.26 20 71.52 20 79 C35.18 79 50.36 79 66 79 C66 84.94 66 90.88 66 97 C44.22 97 22.44 97 0 97 C0 64.99 0 32.98 0 0 Z " fill="#1E2B36" transform="translate(727,699)"/>
<path d="M0 0 C3.46255923 0.33293839 4.13577129 0.97840046 7 3.375 C9.42133112 7.67091005 9.13541861 9.08464909 7.9375 13.8125 C6.42172736 16.56407102 4.57192853 18.97777522 2.625 21.4375 C2.08810547 22.13262695 1.55121094 22.82775391 0.99804688 23.54394531 C-3.87516492 29.76198159 -9.08597496 35.61494356 -14.58447266 41.28320312 C-16.03468778 42.78372304 -17.46128417 44.30409414 -18.88671875 45.828125 C-30.24858154 57.78510511 -43.66705546 67.791761 -58.0625 75.8125 C-59.19896973 76.45034424 -59.19896973 76.45034424 -60.35839844 77.10107422 C-72.5404461 83.87493762 -84.76209838 89.61074384 -98.0625 93.8125 C-98.80081055 94.04662598 -99.53912109 94.28075195 -100.29980469 94.52197266 C-119.1156915 100.31878627 -138.83889186 103.11783556 -158.5 103.3125 C-160.15237671 103.34017456 -160.15237671 103.34017456 -161.83813477 103.3684082 C-163.37038696 103.35620239 -163.37038696 103.35620239 -164.93359375 103.34375 C-165.83005615 103.33923828 -166.72651855 103.33472656 -167.65014648 103.33007812 C-170.82876982 102.64809437 -172.04272277 101.30587818 -174.0625 98.8125 C-174.62890625 96.41015625 -174.62890625 96.41015625 -174.625 93.875 C-174.64691406 93.04097656 -174.66882813 92.20695313 -174.69140625 91.34765625 C-173.76818605 87.62610402 -172.01986731 86.20875858 -169.0625 83.8125 C-166.30662256 83.32636889 -164.15628721 83.1355013 -161.41015625 83.17578125 C-160.30528114 83.16021431 -160.30528114 83.16021431 -159.17808533 83.14433289 C-156.82658178 83.11474808 -154.47665462 83.11799168 -152.125 83.125 C-137.06351486 83.06654254 -122.96947521 82.07027664 -108.4375 77.6875 C-107.41333984 77.38183105 -106.38917969 77.07616211 -105.33398438 76.76123047 C-76.86718601 68.05814583 -53.49160473 54.45377 -32.0625 33.8125 C-31.3096875 33.12285156 -30.556875 32.43320312 -29.78125 31.72265625 C-23.44285649 25.74022324 -18.36917193 18.86312385 -13.17578125 11.8984375 C-11.12374448 9.18561342 -9.06221184 6.4837497 -6.921875 3.83984375 C-6.4690918 3.27515381 -6.01630859 2.71046387 -5.54980469 2.12866211 C-3.71372612 0.50385917 -2.41412442 0.24980888 0 0 Z " fill="#E8C12F" transform="translate(663.0625,502.1875)"/>
<path d="M0 0 C21.78 0 43.56 0 66 0 C66 5.94 66 11.88 66 18 C51.15 18 36.3 18 21 18 C21 25.92 21 33.84 21 42 C33.54 42 46.08 42 59 42 C59 47.94 59 53.88 59 60 C46.46 60 33.92 60 21 60 C21 72.54 21 85.08 21 98 C14.07 98 7.14 98 0 98 C0 65.66 0 33.32 0 0 Z " fill="#1E2D38" transform="translate(139,698)"/>
<path d="M0 0 C25.74 0 51.48 0 78 0 C78 5.61 78 11.22 78 17 C68.76 17 59.52 17 50 17 C50 43.4 50 69.8 50 97 C43.07 97 36.14 97 29 97 C29 70.6 29 44.2 29 17 C19.43 17 9.86 17 0 17 C0 11.39 0 5.78 0 0 Z " fill="#1D2B36" transform="translate(633,699)"/>
<path d="M0 0 C3.625 0.3125 3.625 0.3125 6.0625 1.3125 C8.00802264 3.80276898 8.43300106 5.81560675 8.25 8.9609375 C6.85143705 14.22303059 3.03394731 18.19643359 -0.375 22.3125 C-0.81424805 22.85712891 -1.25349609 23.40175781 -1.70605469 23.96289062 C-25.51967332 53.45604887 -61.39717322 79.36760387 -99.984375 83.953125 C-104.21603553 84.33964181 -108.4393608 84.59754903 -112.6875 84.6875 C-113.37650391 84.72488281 -114.06550781 84.76226563 -114.77539062 84.80078125 C-118.53180085 84.86598413 -120.06135511 84.60247358 -122.859375 82.015625 C-124.92090363 78.33887805 -124.48638054 76.31346995 -123.375 72.3125 C-121.67688383 69.99410162 -120.72059077 69.38700064 -117.88574219 68.77587891 C-116.90766602 68.69772949 -115.92958984 68.61958008 -114.921875 68.5390625 C-113.29245972 68.39017578 -113.29245972 68.39017578 -111.63012695 68.23828125 C-109.89508911 68.08939453 -109.89508911 68.08939453 -108.125 67.9375 C-97.87916719 66.87929073 -88.8453844 65.51885532 -79.375 61.3125 C-78.49714844 60.92497559 -77.61929688 60.53745117 -76.71484375 60.13818359 C-65.37945645 55.06103193 -54.30078326 49.85422543 -44.375 42.3125 C-43.52292969 41.66796875 -42.67085937 41.0234375 -41.79296875 40.359375 C-28.5038929 29.98940491 -17.1021083 18.36097551 -7.1875 4.74609375 C-3.92324085 0.36326304 -3.92324085 0.36326304 0 0 Z " fill="#E7C12F" transform="translate(627.375,468.6875)"/>
<path d="M0 0 C3.465 -0.0825 6.93 -0.165 10.5 -0.25 C12.11358398 -0.30462402 12.11358398 -0.30462402 13.75976562 -0.36035156 C21.10031209 -0.44432091 26.59917609 0.69364343 31.96875 5.9140625 C34.03352295 10.09053506 33.68072912 14.4836241 33 19 C31.23944682 23.05905318 28.44531722 24.79261222 24.46875 26.64453125 C19.48676188 28.42495329 14.73159405 28.33460604 9.5 28.1875 C4.7975 28.0946875 4.7975 28.0946875 0 28 C0 18.76 0 9.52 0 0 Z " fill="#E0E1E1" transform="translate(337,716)"/>
<path d="M0 0 C4.9190625 -0.12375 4.9190625 -0.12375 9.9375 -0.25 C10.95191162 -0.28641602 11.96632324 -0.32283203 13.01147461 -0.36035156 C19.38302018 -0.43702033 24.55374647 0.54906386 30 4 C33.04669905 7.96994119 33.60855591 11.92071152 33.40234375 16.8203125 C32.72004349 20.51665762 30.96235269 22.85516277 28 25 C21.74224164 27.96205883 15.75675325 28.39216816 8.9375 28.1875 C4.5134375 28.0946875 4.5134375 28.0946875 0 28 C0 18.76 0 9.52 0 0 Z " fill="#E2E2E2" transform="translate(832,716)"/>
<path d="M0 0 C2.62623739 2.62623739 3.32094803 5.16261204 4.6015625 8.65234375 C4.8428891 9.30828018 5.0842157 9.96421661 5.33285522 10.64002991 C5.84148649 12.02684726 6.34732913 13.4146901 6.85058594 14.8034668 C7.62175712 16.92856369 8.40394892 19.04936295 9.1875 21.16992188 C9.6803539 22.51798572 10.17256312 23.86628547 10.6640625 25.21484375 C11.11217285 26.44323975 11.5602832 27.67163574 12.02197266 28.93725586 C13 32 13 32 13 35 C4.75 35 -3.5 35 -12 35 C-8.625 22.625 -8.625 22.625 -6.73828125 17.67578125 C-6.34189453 16.62841797 -5.94550781 15.58105469 -5.53710938 14.50195312 C-5.13298828 13.44943359 -4.72886719 12.39691406 -4.3125 11.3125 C-3.89677734 10.21744141 -3.48105469 9.12238281 -3.05273438 7.99414062 C-2.03970298 5.3276557 -1.02207257 2.66302947 0 0 Z " fill="#E3E3E4" transform="translate(253,722)"/>
<path d="M0 0 C21.78 0 43.56 0 66 0 C66 5.94 66 11.88 66 18 C50.82 18 35.64 18 20 18 C20 17.67 20 17.34 20 17 C34.52 17 49.04 17 64 17 C64 12.05 64 7.1 64 2 C43.54 2 23.08 2 2 2 C2 33.68 2 65.36 2 98 C1.34 98 0.68 98 0 98 C0 65.66 0 33.32 0 0 Z " fill="#313840" transform="translate(139,698)"/>
<path d="M0 0 C0.33 0 0.66 0 1 0 C1 32.34 1 64.68 1 98 C7.93 98 14.86 98 22 98 C22 86.45 22 74.9 22 63 C26.62 63 31.24 63 36 63 C36.33 64.32 36.66 65.64 37 67 C36.01 66.505 36.01 66.505 35 66 C33.12943209 65.7724985 31.25314042 65.59037189 29.375 65.4375 C27.87066406 65.31181641 27.87066406 65.31181641 26.3359375 65.18359375 C25.56507813 65.12300781 24.79421875 65.06242188 24 65 C24.01047363 65.98919434 24.02094727 66.97838867 24.03173828 67.99755859 C24.06789019 71.66142164 24.09088282 75.32526886 24.10986328 78.98925781 C24.11993188 80.57619883 24.13358767 82.16312125 24.15087891 83.75 C24.17509001 86.02869247 24.18647422 88.30714006 24.1953125 90.5859375 C24.20563507 91.29744965 24.21595764 92.00896179 24.22659302 92.74203491 C24.22699422 94.49631665 24.12202209 96.24996709 24 98 C22 100 22 100 19.86108398 100.24291992 C18.99813721 100.23881104 18.13519043 100.23470215 17.24609375 100.23046875 C15.84133789 100.22756836 15.84133789 100.22756836 14.40820312 100.22460938 C13.42787109 100.21236328 12.44753906 100.20011719 11.4375 100.1875 C10.45330078 100.18685547 9.46910156 100.18621094 8.45507812 100.18554688 C1.14017532 100.14017532 1.14017532 100.14017532 0 99 C-0.09532328 95.92545239 -0.1255138 92.87340842 -0.11352539 89.79858398 C-0.11367142 88.83283447 -0.11381744 87.86708496 -0.1139679 86.87207031 C-0.11326834 83.66338901 -0.10547397 80.45476497 -0.09765625 77.24609375 C-0.09579222 75.02791882 -0.09436825 72.80974348 -0.09336853 70.59156799 C-0.08954216 64.74059929 -0.07971086 58.88965523 -0.06866455 53.03869629 C-0.05845299 47.07332696 -0.05387146 41.10795367 -0.04882812 35.14257812 C-0.03808869 23.42837456 -0.02101085 11.71418933 0 0 Z " fill="#EEEEEF" transform="translate(810,698)"/>
<path d="M0 0 C4.18392436 0.67241641 5.83120085 1.24671924 8.5 4.5625 C9.40002172 8.86523541 9.23145407 12.31293263 7 16.125 C3.48007394 18.14895748 0.46684481 18.39333813 -3.5 17.5625 C-6.84425629 14.98999516 -8.31699852 12.93501107 -8.875 8.75 C-8.5 5.5625 -8.5 5.5625 -6.4375 2.6875 C-3.5 0.5625 -3.5 0.5625 0 0 Z " fill="#5ABD31" transform="translate(467.5,338.4375)"/>
<path d="M0 0 C4.45850936 0.79616239 5.90783917 1.93313458 8.5 5.625 C9.125 9.125 9.125 9.125 8.5 12.625 C5.90783917 16.31686542 4.45850936 17.45383761 0 18.25 C-4.45850936 17.45383761 -5.90783917 16.31686542 -8.5 12.625 C-9.125 9.125 -9.125 9.125 -8.5 5.625 C-5.90783917 1.93313458 -4.45850936 0.79616239 0 0 Z " fill="#59BC31" transform="translate(562.5,386.375)"/>
<path d="M0 0 C4.12071155 0.73584135 5.82805171 1.38627481 8.5 4.625 C9.16438067 9.27566471 9.08851572 11.44796856 7 15.625 C3.95656951 18.05974439 2.21626512 18.30894893 -1.59765625 18.0390625 C-3.5 17.625 -3.5 17.625 -5.9375 16.0625 C-8.0665223 12.74122522 -8.56817573 10.57919205 -8.5 6.625 C-6.0768816 2.46026525 -4.80003453 0.85714902 0 0 Z " fill="#5ABD31" transform="translate(546.5,298.375)"/>
<path d="M0 0 C14.85 0 29.7 0 45 0 C45 0.33 45 0.66 45 1 C30.81 1 16.62 1 2 1 C2 7.6 2 14.2 2 21 C4.65933594 20.98839844 7.31867188 20.97679687 10.05859375 20.96484375 C12.62345256 20.95705348 15.18831007 20.95097655 17.75317383 20.94506836 C19.54094021 20.94002782 21.32870245 20.93319546 23.11645508 20.92456055 C25.68051168 20.9124827 28.24451397 20.90676906 30.80859375 20.90234375 C31.6127623 20.89718246 32.41693085 20.89202118 33.24546814 20.88670349 C35.16401715 20.88650785 37.08245368 20.93798017 39 21 C40 22 40 22 40.11352539 23.85766602 C40.10828857 24.64842529 40.10305176 25.43918457 40.09765625 26.25390625 C40.09443359 27.10791016 40.09121094 27.96191406 40.08789062 28.84179688 C40.07532227 30.18854492 40.07532227 30.18854492 40.0625 31.5625 C40.05798828 32.46419922 40.05347656 33.36589844 40.04882812 34.29492188 C40.03700225 36.53001314 40.0205222 38.76497437 40 41 C39.67 41 39.34 41 39 41 C39 35.06 39 29.12 39 23 C26.13 23 13.26 23 0 23 C0 15.41 0 7.82 0 0 Z " fill="#F5F4F4" transform="translate(160,717)"/>
<path d="M0 0 C4.63279731 4.13105031 7.38137506 8.72480819 10.375 14.125 C11.33526712 15.82533421 12.2975019 17.52455871 13.26171875 19.22265625 C13.72626465 20.04137207 14.19081055 20.86008789 14.66943359 21.70361328 C16.92001523 25.58782813 19.3668433 29.33055399 21.85546875 33.06640625 C23 35 23 35 23 37 C15.41 37 7.82 37 0 37 C-0.66 35.02 -1.32 33.04 -2 31 C-1.59225342 31.48895752 -1.18450684 31.97791504 -0.7644043 32.48168945 C1.41820934 34.35987877 2.39266086 34.35334764 5.23046875 34.29296875 C6.43413086 34.2784668 6.43413086 34.2784668 7.66210938 34.26367188 C8.49548828 34.23853516 9.32886719 34.21339844 10.1875 34.1875 C11.03248047 34.17396484 11.87746094 34.16042969 12.74804688 34.14648438 C14.83230384 34.11115799 16.91623277 34.05735139 19 34 C13.95904092 24.84347529 8.77345068 15.83709598 3.10009766 7.0546875 C0 2.20685898 0 2.20685898 0 0 Z " fill="#15202B" transform="translate(371,759)"/>
<path d="M0 0 C0.66 0 1.32 0 2 0 C2 12.21 2 24.42 2 37 C-4.27 37 -10.54 37 -17 37 C-17 36.34 -17 35.68 -17 35 C-11.39 35 -5.78 35 0 35 C0 23.45 0 11.9 0 0 Z " fill="#111F2A" transform="translate(158,759)"/>
<path d="M0 0 C2.87287181 2.70290001 5.00236217 5.34327187 7.015625 8.73046875 C7.54414062 9.61541016 8.07265625 10.50035156 8.6171875 11.41210938 C9.15601563 12.32798828 9.69484375 13.24386719 10.25 14.1875 C10.80429687 15.11498047 11.35859375 16.04246094 11.9296875 16.99804688 C16 23.85040794 16 23.85040794 16 25 C8.41 25 0.82 25 -7 25 C-7.66 23.35 -8.32 21.7 -9 20 C-8.34 20.33 -7.68 20.66 -7 21 C-7 21.66 -7 22.32 -7 23 C2.405 22.505 2.405 22.505 12 22 C9.8653125 18.4421875 9.8653125 18.4421875 7.6875 14.8125 C5.26171875 10.76953125 5.26171875 10.76953125 4.09130859 8.81103516 C3.14635842 7.24288295 2.17871443 5.6884481 1.20703125 4.13671875 C0 2 0 2 0 0 Z " fill="#141F2A" transform="translate(873,771)"/>
<path d="M0 0 C0.66 0.33 1.32 0.66 2 1 C2 1.99 2 2.98 2 4 C-6.25 4 -14.5 4 -23 4 C-22.67 3.01 -22.34 2.02 -22 1 C-14.74 1.33 -7.48 1.66 0 2 C0 1.34 0 0.68 0 0 Z " fill="#F2F1F2" transform="translate(264,753)"/>
<path d="M0 0 C0 0.66 0 1.32 0 2 C-7.26 2 -14.52 2 -22 2 C-22 1.34 -22 0.68 -22 0 C-18.70880065 -0.1964031 -15.41703066 -0.38060745 -12.125 -0.5625 C-11.18785156 -0.61857422 -10.25070312 -0.67464844 -9.28515625 -0.73242188 C-8.38925781 -0.78076172 -7.49335938 -0.82910156 -6.5703125 -0.87890625 C-5.74289551 -0.9260376 -4.91547852 -0.97316895 -4.06298828 -1.02172852 C-2 -1 -2 -1 0 0 Z " fill="#121F2B" transform="translate(303,794)"/>
<path d="M0 0 C1 2 1 2 0.29296875 4.171875 C-0.07183594 5.02265625 -0.43664062 5.8734375 -0.8125 6.75 C-2.01483925 9.6174345 -3.14082837 12.4224851 -4.125 15.375 C-5.33155699 18.99467098 -6.88328041 21.82492061 -9 25 C-8.4465559 19.20421044 -6.78884517 14.45644659 -4.5 9.125 C-4.01853516 7.96871094 -4.01853516 7.96871094 -3.52734375 6.7890625 C-1.15788849 1.15788849 -1.15788849 1.15788849 0 0 Z " fill="#041F68" transform="translate(469,429)"/>
<path d="M0 0 C0.66 0.33 1.32 0.66 2 1 C1.16855469 1.81404297 1.16855469 1.81404297 0.3203125 2.64453125 C-0.76636719 3.71767578 -0.76636719 3.71767578 -1.875 4.8125 C-2.59429688 5.52019531 -3.31359375 6.22789062 -4.0546875 6.95703125 C-6.15358937 9.04399194 -6.15358937 9.04399194 -8 12 C-9.32 11.67 -10.64 11.34 -12 11 C-8.04 7.37 -4.08 3.74 0 0 Z " fill="#F2D228" transform="translate(628,539)"/>
<path d="M0 0 C0.99 0.33 1.98 0.66 3 1 C2.34 1.4125 1.68 1.825 1 2.25 C0.34 2.8275 -0.32 3.405 -1 4 C-1 5.32 -1 6.64 -1 8 C-3.31 8 -5.62 8 -8 8 C-5.33333333 5.33333333 -2.66666667 2.66666667 0 0 Z " fill="#EECD28" transform="translate(593,503)"/>
<path d="M0 0 C1.98 0.66 3.96 1.32 6 2 C5.67 4.31 5.34 6.62 5 9 C1.9083091 6.47043472 1.09068668 3.77545388 0 0 Z " fill="#62CB2C" transform="translate(454,447)"/>
<path d="M0 0 C3.7952131 1.49097658 5.61042731 3.75700849 8 7 C5 7 5 7 2.3125 4.625 C0 2 0 2 0 0 Z " fill="#1D3666" transform="translate(707,220)"/>
<path d="M0 0 C6.4 -0.36923077 6.4 -0.36923077 9.4375 1.5 C9.953125 1.995 10.46875 2.49 11 3 C10.67 4.32 10.34 5.64 10 7 C9.46375 6.195625 8.9275 5.39125 8.375 4.5625 C5.56894631 1.53491576 4.03174806 1.27489191 0 1 C0 0.67 0 0.34 0 0 Z " fill="#1C3163" transform="translate(661,502)"/>
<path d="M0 0 C0.66 0.33 1.32 0.66 2 1 C-0.6598561 4.44216672 -3.90288286 4.99504674 -8 6 C-5.54080489 3.3651481 -3.42227589 1.25483449 0 0 Z " fill="#EFD228" transform="translate(598,562)"/>
<path d="M0 0 C2.31 0 4.62 0 7 0 C7 0.99 7 1.98 7 3 C4.36 3 1.72 3 -1 3 C-0.67 2.01 -0.34 1.02 0 0 Z " fill="#D7BA32" transform="translate(514,537)"/>
<path d="M0 0 C0.99 0.33 1.98 0.66 3 1 C1.35 2.65 -0.3 4.3 -2 6 C-2.66 5.67 -3.32 5.34 -4 5 C-2.68 3.35 -1.36 1.7 0 0 Z " fill="#0F2C63" transform="translate(665,523)"/>
<path d="M0 0 C0 3.10551666 -0.5393715 4.35261084 -2 7 C-2.66 7 -3.32 7 -4 7 C-4.33 7.99 -4.66 8.98 -5 10 C-5.33 9.34 -5.66 8.68 -6 8 C-4.02 5.36 -2.04 2.72 0 0 Z " fill="#60CB2B" transform="translate(415,331)"/>
<path d="M0 0 C0.66 0.33 1.32 0.66 2 1 C1.0479279 2.00596297 0.08812654 3.00461563 -0.875 4 C-1.40867187 4.556875 -1.94234375 5.11375 -2.4921875 5.6875 C-4 7 -4 7 -6 7 C-4.60667426 3.63279613 -3.0210714 2.0140476 0 0 Z " fill="#031E66" transform="translate(577,468)"/>
<path d="M0 0 C0.66 0.33 1.32 0.66 2 1 C0.515 3.475 0.515 3.475 -1 6 C-2.32 5.67 -3.64 5.34 -5 5 C-3.35 3.35 -1.7 1.7 0 0 Z " fill="#61C82D" transform="translate(526,241)"/>
</svg>
